<svg xmlns="http://www.w3.org/2000/svg" viewBox="0 0 760 470" font-family="'Hiragino Sans','Noto Sans CJK JP',sans-serif">
<defs><marker id="mv" markerWidth="9" markerHeight="7" refX="7" refY="3.5" orient="auto"><polygon points="0 0,9 3.5,0 7" fill="#1d4ed8"/></marker></defs>
<style>.t{fill:#0f172a}.m{fill:#64748b}</style>
<rect width="760" height="470" fill="#ffffff"/>
<text x="22" y="30" font-size="15.5" font-weight="700" class="t">Stage 2: バッチ化で AI を右へ → 演算律速側(exact)</text>
<text x="26" y="66" font-size="12" font-weight="600" class="t">↑ GFLOP/s</text>
<line x1="74.0" y1="80" x2="74.0" y2="410" stroke="#eef2f7"/>
<text x="74.0" y="428" font-size="11" class="m" text-anchor="middle">0.1</text>
<line x1="290.0" y1="80" x2="290.0" y2="410" stroke="#eef2f7"/>
<text x="290.0" y="428" font-size="11" class="m" text-anchor="middle">1</text>
<line x1="506.0" y1="80" x2="506.0" y2="410" stroke="#eef2f7"/>
<text x="506.0" y="428" font-size="11" class="m" text-anchor="middle">10</text>
<line x1="722.0" y1="80" x2="722.0" y2="410" stroke="#eef2f7"/>
<text x="722.0" y="428" font-size="11" class="m" text-anchor="middle">100</text>
<line x1="74" y1="410.0" x2="722" y2="410.0" stroke="#eef2f7"/>
<text x="65" y="413.0" font-size="11" class="m" text-anchor="end">1</text>
<line x1="74" y1="300.0" x2="722" y2="300.0" stroke="#eef2f7"/>
<text x="65" y="303.0" font-size="11" class="m" text-anchor="end">10</text>
<line x1="74" y1="190.0" x2="722" y2="190.0" stroke="#eef2f7"/>
<text x="65" y="193.0" font-size="11" class="m" text-anchor="end">100</text>
<line x1="74" y1="80.0" x2="722" y2="80.0" stroke="#eef2f7"/>
<text x="65" y="83.0" font-size="11" class="m" text-anchor="end">1000</text>
<line x1="74" y1="410" x2="722" y2="410" stroke="#0f172a" stroke-width="1.3"/>
<line x1="74" y1="80" x2="74" y2="410" stroke="#0f172a" stroke-width="1.3"/>
<text x="722" y="446" font-size="12" font-weight="600" class="t" text-anchor="end">算術強度 AI (flop/byte) →</text>
<line x1="448.7" y1="190.0" x2="722.0" y2="190.0" stroke="#94a3b8" stroke-width="1.1" stroke-dasharray="2 4"/>
<text x="720.0" y="185.0" font-size="10" fill="#64748b" text-anchor="end">AVX2理論 ~100</text>
<path d="M 74.0 380.9 L 320.6 255.3 L 722.0 255.3" stroke="#dc2626" stroke-width="2.4" fill="none"/>
<text x="196.0" y="318.0" font-size="10.5" fill="#dc2626" font-weight="600" transform="rotate(-27 196 318)">DRAM ~20 GB/s (read)</text>
<text x="720.0" y="248.3" font-size="10" fill="#dc2626" text-anchor="end">Go実測 25.5</text>
<circle cx="320.6" cy="255.3" r="3.5" fill="none" stroke="#dc2626"/>
<text x="320.6" y="246.3" font-size="10" fill="#dc2626" text-anchor="middle">リッジ 1.3</text>
<line x1="225.0" y1="304.0" x2="550.1" y2="286.7" stroke="#1d4ed8" stroke-width="1.6" stroke-dasharray="4 3" marker-end="url(#mv)"/>
<circle cx="225.0" cy="304.0" r="4" fill="#cbd5e1"/>
<text x="232.0" y="307.0" font-size="9.5" fill="#94a3b8">Stage 1 全探索</text>
<circle cx="550.1" cy="286.7" r="6.5" fill="#dc2626" stroke="#fff" stroke-width="1.5"/>
<text x="559.1" y="289.7" font-size="11.5" font-weight="700" class="t">Stage 2 バッチ 13.3GF(exact)</text>
</svg>